<svg id="logosandtypes_com" data-name="logosandtypes com" xmlns="http://www.w3.org/2000/svg" xmlns:xlink="http://www.w3.org/1999/xlink" viewBox="0 0 150 150"><defs><style>.cls-1{fill:none;}.cls-2{fill:#323232;}.cls-3{fill:url(#linear-gradient);}.cls-4{fill:url(#linear-gradient-2);}.cls-5{fill:url(#linear-gradient-3);}.cls-6{fill:url(#linear-gradient-4);}</style><linearGradient id="linear-gradient" x1="38.17" y1="20.05" x2="38.17" y2="63.92" gradientTransform="matrix(1, 0, 0, -1, 0, 149.89)" gradientUnits="userSpaceOnUse"><stop offset="0" stop-color="#323232"/><stop offset="1" stop-color="#dcdcdc"/></linearGradient><linearGradient id="linear-gradient-2" x1="75.61" y1="60.29" x2="75.61" y2="140.17" gradientTransform="matrix(1, 0, 0, -1, 0, 149.89)" gradientUnits="userSpaceOnUse"><stop offset="0" stop-color="#282828"/><stop offset="1" stop-color="#698bb5"/></linearGradient><linearGradient id="linear-gradient-3" x1="82.66" y1="7.78" x2="82.66" y2="51.69" xlink:href="#linear-gradient"/><linearGradient id="linear-gradient-4" x1="63.4" y1="74.41" x2="83.6" y2="74.41" gradientTransform="matrix(1, 0, 0, -1, 0, 149.89)" gradientUnits="userSpaceOnUse"><stop offset="0" stop-color="#dcdcdc"/><stop offset="1" stop-color="#323232"/></linearGradient></defs><g id="Layer_2" data-name="Layer 2"><path id="Layer_3" data-name="Layer 3" class="cls-1" d="M0,0H150V150H0Z" transform="translate(0 0)"/></g><path class="cls-2" d="M83.6,61.71c-4.94-5,0,30.3,0,30.3l6.19,6.19L75.53,112.43,49.18,86.07,27.29,108l24.2,24.2a34.38,34.38,0,0,0,48.4,0l27.2-27.07Z" transform="translate(0 0)"/><polygon class="cls-3" points="49.18 129.84 49.21 85.97 27.13 108.11 49.18 129.84"/><path class="cls-4" d="M58.31,41.79c16.54-16.53,28.45-5.87,40.8,6.48C104,53,131.66,81.38,139.6,89.6a34.39,34.39,0,0,0-6.76-38.77L99.76,19.56a34.4,34.4,0,0,0-48.4,0L18.28,50.83A34.4,34.4,0,0,0,11.41,89Z" transform="translate(0 0)"/><path class="cls-5" d="M89.76,98.2,75.53,112.43v29.68a34.2,34.2,0,0,0,14.26-3Z" transform="translate(0 0)"/><path class="cls-6" d="M72.56,62.87,63.4,72,83.6,92V61.71C79.22,57.62,77.07,58.12,72.56,62.87Z" transform="translate(0 0)"/></svg>